<?xml version="1.0" encoding="utf-8"?>
<!-- Generator: Adobe Illustrator 21.0.0, SVG Export Plug-In . SVG Version: 6.00 Build 0)  -->
<svg version="1.1" id="Layer_1" xmlns="http://www.w3.org/2000/svg" xmlns:xlink="http://www.w3.org/1999/xlink" x="0px" y="0px"
	 viewBox="0 0 601 848" style="enable-background:new 0 0 601 848;" xml:space="preserve">
<style type="text/css">
	.st0{fill-rule:evenodd;clip-rule:evenodd;fill:#C64D44;}
</style>
<g>
	<path class="st0" d="M265.1,420.9c0.2,0.2,0.3,0.4,0.3,0.7c0,0.3,0,0.8-0.2,1.2v0c-0.1,0.3-0.3,0.5-0.6,0.5h-0.1v-0.1
		c0-1.5-1.4-1.5-2.4-1.5c-0.2,0-0.3,0.1-0.4,0.1c-0.1,0.1-0.1,0.3-0.1,0.4v8.1c0,0.2,0.1,0.4,0.3,0.6c0.2,0.1,0.4,0.2,0.6,0.2h0.6
		h0.1v0.1v0.5v0.1h-0.1h-4.3h-0.1v-0.1v-0.5v-0.1h0.1h0.5c0.2,0,0.5-0.1,0.6-0.3c0.1-0.1,0.2-0.3,0.2-0.6v-8.1c0-0.2,0-0.4-0.1-0.5
		l0,0c-0.1-0.1-0.2-0.2-0.4-0.2c-2,0-2.3,0.9-2.4,1.2l0,0l0,0.1h-0.1c-0.2,0-0.3-0.2-0.4-0.4l0,0c-0.1-0.2-0.2-0.5-0.2-0.7
		c0-0.1,0-0.3,0.1-0.5c0.1-0.2,0.2-0.4,0.5-0.5l0,0c0.4-0.2,1-0.2,1.5-0.2c0.2,0,0.5,0,0.8,0c0.4,0,0.9,0,1.5,0c0.2,0,0.8,0,1.5,0
		c0.8,0,1.7,0,1.9,0C264.7,420.7,264.9,420.8,265.1,420.9L265.1,420.9z M342.9,421.4c0.8,0.6,1.1,1.5,1.1,2.3c0,0.6-0.2,1.1-0.4,1.5
		c-0.2,0.3-0.5,0.6-0.9,0.8c0.5,0.2,1,0.5,1.3,0.9c0.3,0.4,0.6,1,0.6,1.8c0,1-0.3,1.8-1.1,2.4c-0.6,0.5-1.6,0.9-2.9,0.9h-5.4H335
		v-0.1v-0.5v-0.1h0.1h0.4c0.2,0,0.4-0.1,0.5-0.2c0.1-0.1,0.2-0.3,0.2-0.5v-8.4c0-0.2-0.1-0.3-0.2-0.4c-0.1-0.1-0.3-0.2-0.4-0.2h-0.6
		H335v-0.1v-0.5v-0.1h0.1h1.5c0.5,0,0.9,0,1.4-0.1l0.2,0v0c0.3,0,0.5-0.1,0.8-0.1c0.3,0,0.6,0,0.9,0
		C341.3,420.6,342.3,420.9,342.9,421.4L342.9,421.4z M338.1,430.8c0.4,0.1,1,0.2,2.2,0.2c0.9,0,1.5-0.2,1.9-0.6
		c0.6-0.5,0.8-1.1,0.8-1.6c0-0.5-0.1-1.1-0.5-1.5c-0.3-0.3-0.7-0.5-1.4-0.5c-0.1,0-0.3,0-0.5,0c-0.2,0-0.5,0.1-0.6,0.1
		c-0.3,0-0.5-0.1-0.6-0.2c-0.2-0.1-0.2-0.3-0.2-0.5c0-0.3,0.3-0.5,0.3-0.5l0,0l0.1,0c0,0,0.7,0.1,1,0.1c0.6,0,1.1-0.2,1.5-0.5
		c0.4-0.3,0.6-0.8,0.6-1.4c0-0.5-0.1-1-0.5-1.5c-0.4-0.4-1.1-0.7-2.3-0.7c-0.3,0-0.8,0-1.2,0.1c-0.3,0.1-0.6,0.1-0.8,0.3v8.7
		C337.7,430.6,337.9,430.7,338.1,430.8L338.1,430.8z M332.5,430.6c-0.9,1-2.2,1.6-3.9,1.6c-1.5,0-2.9-0.6-3.9-1.7
		c-1-1-1.6-2.5-1.6-4.1c0-1.7,0.5-3.2,1.5-4.2c0.9-1,2.3-1.6,3.9-1.6c1.7,0,3.1,0.6,4,1.6c1,1.1,1.5,2.6,1.5,4.3
		C334,428,333.5,429.5,332.5,430.6L332.5,430.6z M325.8,422.8c-0.7,0.9-1.1,2.3-1.1,3.6h0c0,1.3,0.4,2.6,1.1,3.4
		c0.7,0.8,1.6,1.3,2.8,1.3v0c1.2,0,2.1-0.5,2.8-1.3c0.7-0.9,1.1-2.1,1.1-3.5c0-1.4-0.4-2.7-1.1-3.5c-0.7-0.8-1.6-1.3-2.9-1.3
		C327.3,421.5,326.4,422,325.8,422.8L325.8,422.8z M322,421.5h-0.6c-0.2,0-0.4,0.1-0.5,0.2c-0.1,0.1-0.2,0.3-0.2,0.5v8.3
		c0,0.2,0.1,0.4,0.2,0.6h0c0.1,0.1,0.3,0.2,0.5,0.2h0.5h0.1v0.1v0.5v0.1H322h-3.8h-0.1v-0.1v-0.5v-0.1h0.1h0.4
		c0.3,0,0.4-0.1,0.5-0.2c0.2-0.2,0.2-0.5,0.2-0.6v-3.6c0,0,0-0.1,0-0.1v0c0,0-0.1-0.1-0.1-0.1h-5.4c-0.1,0-0.1,0.2-0.1,0.2v3.7
		c0,0.2,0,0.5,0.2,0.6c0.1,0.1,0.3,0.2,0.5,0.2h0.5h0.1v0.1v0.5v0.1h-0.1h-3.7h-0.1v-0.1v-0.5v-0.1h0.1h0.5c0.2,0,0.4-0.1,0.5-0.2
		c0.1-0.1,0.2-0.4,0.2-0.6v-8.2c0-0.2-0.1-0.4-0.2-0.5c-0.1-0.1-0.3-0.2-0.5-0.2h-0.5h-0.1v-0.1v-0.5v-0.1h0.1h3.7h0.1v0.1v0.5v0.1
		h-0.1h-0.6c-0.2,0-0.3,0.1-0.4,0.2c-0.1,0.1-0.2,0.3-0.2,0.5v3.1c0,0,0,0.2,0.1,0.2h5.4c0.1,0,0.1,0,0.1,0c0,0,0-0.1,0-0.1v-3.1
		c0-0.2-0.1-0.4-0.2-0.5l0,0c-0.1-0.1-0.3-0.2-0.4-0.2h-0.6h-0.1v-0.1v-0.5v-0.1h0.1h3.8h0.1v0.1v0.5v0.1H322L322,421.5z M309,430.9
		c0.2,0.2,0.4,0.3,0.5,0.3h0.4h0.1v0.1v0.5v0.1H310h-3.5h-0.1v-0.1v-0.5v-0.1h0.1h0.4c0.1,0,0.2,0,0.3-0.1c0.1-0.1,0.1-0.1,0.1-0.2
		c0-0.1,0-0.1,0-0.2c0-0.1,0-0.1,0-0.2l0,0l-0.2-0.7c-0.2-0.6-0.4-1.3-0.6-1.6h-4.3c-0.2,0.4-0.4,1-0.6,1.5c-0.1,0.4-0.2,0.7-0.2,1
		c0,0.3,0,0.5,0.1,0.6c0.1,0.1,0.1,0.2,0.2,0.2l0.1,0v0.1c0,0.1-0.1,0.3-0.4,0.4c-0.2,0.1-0.4,0.1-0.6,0.1c-0.3,0-0.5-0.1-0.7-0.3
		c-0.2-0.3-0.3-0.7-0.3-0.8c0-0.7,0.5-1.6,0.9-2.4l0,0h0c0.8-1.5,1.5-2.9,2-4.1c0.5-1.2,0.9-2.1,0.9-2.5c0-0.3-0.1-0.5-0.2-0.6
		c-0.1-0.1-0.2-0.1-0.3-0.1l-0.1,0v-0.1c0-0.1,0.1-0.3,0.4-0.4c0.2-0.1,0.4-0.1,0.6-0.1c0.5,0,0.9,0.2,1.2,0.6
		c0.3,0.3,0.5,0.8,0.6,1.2v0c0.2,0.6,2.9,7.9,2.9,7.9C308.7,430.6,308.9,430.8,309,430.9L309,430.9z M304.4,423.3
		c-0.3,0.8-0.8,2-1.7,3.9h3.3c-0.3-0.8-0.6-1.7-0.9-2.5c-0.2-0.6-0.4-1.1-0.6-1.7L304.4,423.3L304.4,423.3z M295.5,428.1
		c0.4,0.6,0.7,1,0.9,1.4c0.4,0.6,0.8,1,1.1,1.3c0.4,0.3,0.7,0.5,0.9,0.5h0.3h0.1l0,0.1c0,0-0.2,0.8-1.1,0.8c-0.3,0-0.6-0.1-0.9-0.3
		c-0.3-0.2-0.6-0.5-0.9-0.9c-0.4-0.5-0.7-1-1.3-2c-0.3-0.5-0.6-1-1-1.7c-0.5,0.7-0.9,1.3-1.2,1.7c-0.9,1.4-1,1.4-1,1.7
		c0,0.1,0.1,0.2,0.1,0.3c0.1,0.1,0.3,0.1,0.4,0.1h0.8h0.1v0.1v0.5v0.1h-0.1h-4.6H288v-0.1v-0.5v-0.1h0.1h0.5c1,0,2.3-2,3.8-4.2
		l0.5-0.7c-0.8-1.3-2.5-3.8-2.5-3.8h0c-0.2-0.2-0.4-0.5-0.6-0.7c-0.2-0.2-0.5-0.3-0.9-0.3h-0.4h-0.1v-0.1v-0.5v-0.1h0.1h4.2h0.1v0.1
		v0.5v0.1h-0.1h-0.4c-0.2,0-0.3,0-0.4,0.1c-0.1,0.1-0.1,0.1-0.1,0.3c0,0.2,0.3,0.6,0.8,1.4c0.3,0.5,0.7,1.1,1.1,1.8
		c0.5-0.8,1-1.6,1.3-2.1c0.3-0.6,0.5-1,0.5-1.1c0-0.1-0.1-0.2-0.1-0.3c-0.1-0.1-0.3-0.1-0.5-0.1h-0.3h-0.1v-0.1v-0.5v-0.1h0.1h3.9
		h0.1v0.1v0.5v0.1h-0.1h-0.4c-0.3,0-0.5,0.1-0.8,0.3h0c-0.2,0.2-0.5,0.4-0.7,0.8c-0.3,0.5-0.6,1-1,1.7c-0.4,0.6-0.8,1.3-1.3,2
		C294.7,426.9,295.2,427.5,295.5,428.1L295.5,428.1L295.5,428.1z M282.9,421.4v-0.5v-0.1h0.1h3.9h0.1v0.1v0.5v0.1h-0.1h-0.2
		c-0.3,0-0.5,0.1-0.7,0.3c-0.2,0.2-0.4,0.4-0.5,0.8l0,0c-0.7,1.6-1.2,3-1.6,4.2c-1.4,3.6-2.1,5.5-3.9,5.5c-0.4,0-0.9-0.1-1.2-0.3
		c-0.3-0.2-0.4-0.5-0.4-0.8c0-0.3,0.1-0.5,0.2-0.6c0.3-0.3,0.7-0.4,0.7-0.4h0.1v0.1c0,0.3,0.1,0.6,0.2,0.7c0.1,0.2,0.3,0.3,0.4,0.3
		c0.8,0,1.3-1.2,1.5-1.7c0-0.1,0-0.1,0.1-0.1l0,0c0,0-0.6-1.3-1.3-2.7c-0.6-1.2-1.2-2.5-1.6-3.2v0c-0.4-0.6-0.6-1.1-0.9-1.4
		c-0.3-0.3-0.7-0.5-1.2-0.5h-0.1v-0.1c0-0.3,0.1-0.5,0.3-0.7c0.2-0.1,0.5-0.2,0.8-0.2c1.3,0,1.8,1,3.3,4.3c0.4,0.8,0.8,1.8,1.4,2.9
		c0.4-1,1-2.4,1.4-3.6c0.4-1,0.6-1.9,0.6-2.1c0-0.2-0.1-0.4-0.2-0.5c-0.2-0.1-0.4-0.2-0.6-0.2H283h-0.1V421.4L282.9,421.4z
		 M269.6,420.7c0.5-0.1,1-0.1,1.6-0.1c1.4,0,2.3,0.4,3,1c0.8,0.7,1.1,1.7,1.1,2.8c0,1-0.4,2-1.1,2.6c-0.7,0.7-1.6,1.1-2.7,1.1
		c-0.5,0-1-0.1-1.3-0.3c-0.3-0.2-0.5-0.4-0.5-0.8c0-0.2,0.1-0.4,0.2-0.5l0,0c0.1-0.1,0.3-0.2,0.5-0.2l0.1,0v0.1
		c0,0.1,0.1,0.3,0.3,0.5c0.2,0.1,0.4,0.2,0.7,0.2c0.7,0,1.2-0.3,1.6-0.7v0c0.4-0.5,0.6-1.2,0.6-1.9c0-0.7-0.2-1.5-0.8-2.1
		c-0.4-0.4-1.1-0.7-2.1-0.7c-0.4,0-0.8,0.1-1.1,0.2c-0.3,0.1-0.6,0.2-0.7,0.3v8.4c0,0.4,0.1,0.6,0.3,0.7c0.2,0.1,0.5,0.2,0.7,0.2
		h0.5h0.1v0.1v0.5v0.1h-0.1h-4.1h-0.1v-0.1v-0.5v-0.1h0.1h0.5c0.2,0,0.4-0.1,0.6-0.2c0.1-0.1,0.2-0.3,0.2-0.5v-8.3
		c0-0.2-0.1-0.4-0.2-0.6c-0.1-0.1-0.4-0.2-0.6-0.2h-0.4h-0.1v-0.1v-0.5v-0.1h0.1h1.4v0C268.6,420.8,269.1,420.7,269.6,420.7z"/>
	<path class="st0" d="M292.5,416.4h0.7v-4c0-0.5,0.4-1,1-1h1.2v-2c0-0.7,0.5-1.2,1.2-1.2h7.9c0.7,0,1.2,0.5,1.2,1.2v2h0.9
		c0.5,0,1,0.4,1,1v4h0.8c0.1,0,0.2,0.1,0.2,0.2v0.4c0,0.1-0.1,0.2-0.2,0.2h-15.9c-0.1,0-0.2-0.1-0.2-0.2v-0.4
		C292.3,416.5,292.4,416.4,292.5,416.4L292.5,416.4z M298.1,409.8c-0.3,0-0.5,0.2-0.5,0.5s0.2,0.5,0.5,0.5c0.3,0,0.5-0.2,0.5-0.5
		S298.4,409.8,298.1,409.8L298.1,409.8z M300.6,409.8c-0.3,0-0.5,0.2-0.5,0.5s0.2,0.5,0.5,0.5c0.3,0,0.5-0.2,0.5-0.5
		S300.9,409.8,300.6,409.8L300.6,409.8z M303,409.8c-0.3,0-0.5,0.2-0.5,0.5s0.2,0.5,0.5,0.5s0.5-0.2,0.5-0.5S303.3,409.8,303,409.8
		L303,409.8z M296.1,411.5h8.9v-2c0-0.3-0.2-0.5-0.5-0.5h-7.9c-0.3,0-0.5,0.2-0.5,0.5V411.5L296.1,411.5z M294,414.7h12.9V414H294
		V414.7L294,414.7z M306.9,415.4H294v1h12.9V415.4L306.9,415.4z M294,413.3h12.9v-0.8c0-0.1-0.1-0.3-0.2-0.3h-12.4
		c-0.1,0-0.2,0.1-0.2,0.3V413.3z"/>
	<g>
		<path class="st0" d="M321.3,412c-0.4,1.2-1.9,1.3-2.9,0.9c-0.7-0.3-1.3-0.8-2-1.1c-0.4-0.2-0.9-0.3-1.4-0.1
			c-0.2,0.1-0.4,0.2-0.5,0.3c-0.1,0.1-0.2,0.3-0.2,0.5c0,0.1,0.1,0.2,0.1,0.3c0,0,0,0,0-0.1c0,0-0.1-0.1,0-0.2
			c0.5-0.8,1.5,0.5,0.5,0.8c-0.5,0.2-0.9-0.2-1-0.7c-0.1-0.6,0.3-1.1,0.8-1.3c1.1-1.5,3-0.9,4.5-0.4c0.1-0.3,0.3-0.5,0.6-0.6
			c0.8-0.3,1.5,0.4,1.5,1.2c0.8,0.1,1.9,0.1,2.3-0.8c0.2-0.5,0-1.2-0.5-1.5c-0.3-0.2-0.6-0.2-0.9-0.1c-0.1,0-0.3,0.1-0.4,0.2
			c-0.3,0.2-0.6,0.5-0.2,0.8c0.2,0.1,0.1,0.5-0.2,0.4c-0.6-0.2-0.5-0.8-0.2-1.2c0.4-0.4,0.9-0.6,1.5-0.5c1.1,0.1,1.7,1.5,1.1,2.4
			C323.2,412,322.2,412.1,321.3,412L321.3,412z M321,411.6C321,411.5,321,411.5,321,411.6c0-0.5-0.5-1-1-0.8
			c-0.2,0.1-0.4,0.2-0.4,0.4c0.2,0.1,0.4,0.1,0.6,0.2C320.4,411.4,320.7,411.5,321,411.6L321,411.6z M315.4,411.2
			c1.2-0.1,2.3,1.1,3.4,1.4c0.7,0.2,1.8,0,2.1-0.7c-0.3-0.1-0.7-0.2-1-0.3c-0.1,0-0.2-0.1-0.3-0.1c0.1,0.3,0.3,0.5,0.6,0.5
			c0.2,0,0.2,0.4,0,0.3c-0.5-0.1-0.9-0.5-1-1C318,411,316.5,410.5,315.4,411.2z"/>
		<path class="st0" d="M262.1,417.5c-0.1,0-0.1,0-0.1-0.1s-0.1-0.1-0.1-0.1c0-0.1,0-0.1,0.1-0.1c0,0,0.1-0.1,0.1-0.1h14.4h8.3h0h0h0
			h0h0l0,0l0.1,0c0.2,0,0.4,0,0.6-0.1c0.1,0,0.2-0.1,0.2-0.2c0.1-0.1,0.1-0.1,0.1-0.2c0-0.1,0-0.3-0.1-0.5c0,0,0-0.1-0.1-0.1l0,0
			c0,0,0,0,0,0c0,0,0.1,0.1,0.1,0.1c0,0.2-0.1,0.3-0.2,0.4c-0.1,0-0.1,0.1-0.2,0.1c-0.1,0-0.2,0-0.2,0v0c-0.1,0-0.3-0.2-0.3-0.3
			c0-0.1,0-0.3,0-0.4c0-0.1,0.1-0.2,0.2-0.3c0.1-0.1,0.2-0.1,0.4-0.1c0.2,0,0.4,0,0.6,0.1c0.1,0.1,0.2,0.1,0.2,0.2
			c0.1,0.2,0.2,0.4,0.2,0.5c0,0.2-0.1,0.4-0.2,0.5c-0.1,0.1-0.1,0.2-0.2,0.2c-0.2,0.1-0.3,0.2-0.5,0.2c-0.2,0-0.3,0-0.5,0l0,0l0,0
			H262.1z"/>
		<path class="st0" d="M338.8,417.1c0.1,0,0.1,0,0.1,0.1c0,0,0.1,0.1,0.1,0.1c0,0.1,0,0.1-0.1,0.1c0,0-0.1,0.1-0.1,0.1h-22.7l0,0
			l0,0c-0.2,0-0.3,0-0.5,0c-0.2,0-0.3-0.1-0.5-0.2c-0.1-0.1-0.2-0.1-0.2-0.2v0c-0.1-0.2-0.2-0.4-0.2-0.5c0-0.2,0.1-0.4,0.2-0.5
			c0.1-0.1,0.1-0.2,0.2-0.2c0.1-0.1,0.4-0.2,0.6-0.1c0.1,0,0.3,0,0.4,0.1c0.1,0.1,0.2,0.2,0.2,0.3h0c0,0.1,0,0.2,0,0.4
			c-0.1,0.2-0.2,0.3-0.3,0.3v0c-0.1,0-0.2,0-0.2,0c-0.1,0-0.2,0-0.2-0.1l0,0c-0.1-0.1-0.2-0.2-0.2-0.4c0-0.1,0-0.1,0.1-0.1
			c0,0,0,0,0,0l0,0c0,0,0,0-0.1,0.1c-0.1,0.1-0.1,0.3-0.1,0.5c0,0.1,0,0.1,0.1,0.2c0.1,0.1,0.2,0.1,0.2,0.2c0.2,0.1,0.4,0.1,0.6,0.1
			l0.1,0l0,0h0h0h0h0h0h8.3H338.8z"/>
		<path class="st0" d="M276,441.6c-0.2,0.1-0.3,0.2-0.4,0.3c-0.1,0.1-0.2,0.1-0.3,0.1c0,0-0.1,0-0.1,0c0,0-0.1,0-0.1-0.1
			c0,0-0.1-0.1-0.1-0.1l0,0c0-0.1-0.1-0.1-0.1-0.2h0c0-0.1-0.1-0.2-0.1-0.4c0-0.1-0.1-0.2-0.1-0.4c0,0-0.1,0.1-0.1,0.1l0,0
			c0,0.1-0.1,0.1-0.1,0.2v0c0,0,0,0.1-0.1,0.3c0,0.1-0.1,0.3-0.1,0.5l0,0.1l-0.1,0c-0.1,0-0.2,0.1-0.3,0.1l-0.1,0l-0.1-0.1l0,0l0,0
			l0-0.1c0-0.2,0.1-0.3,0.1-0.5c0-0.2,0.1-0.4,0.1-0.6h0c0-0.2,0.1-0.4,0.1-0.5c0-0.1,0-0.2,0-0.3c0,0,0,0-0.1,0
			c-0.1,0-0.1,0.1-0.2,0.2l-0.1,0.1l-0.1-0.1l0-0.1l0-0.1l0.1,0c0.2-0.2,0.4-0.3,0.5-0.4c0.2-0.1,0.3-0.1,0.3-0.1
			c0.1,0,0.1,0,0.2,0.1c0,0,0.1,0.1,0.1,0.2c0,0,0,0.2-0.1,0.4c0,0.1,0,0.2-0.1,0.4l0.1-0.2c0.1-0.1,0.2-0.3,0.3-0.4
			c0.1-0.1,0.2-0.2,0.3-0.2c0.1-0.1,0.2-0.1,0.2-0.1l0,0c0.1,0,0.1,0,0.2-0.1h0c0.1,0,0.1,0,0.1,0c0,0,0,0,0.1,0l0,0l0.1,0l0.1,0
			l0,0.1c0,0.1,0,0.1,0,0.2c0,0.1,0,0.1,0,0.2l0,0.1l-0.1,0c0,0-0.1,0-0.1,0h0c0,0,0,0,0,0c-0.1,0-0.2,0-0.3,0.1
			c-0.1,0.1-0.3,0.2-0.4,0.3c0.1,0.3,0.2,0.6,0.3,0.7h0c0.1,0.2,0.1,0.3,0.1,0.3l0,0c0,0,0,0,0,0.1h0c0,0,0,0,0,0c0,0,0.1,0,0.3-0.1
			l0.1-0.1l0.1,0.1l0,0.1L276,441.6L276,441.6L276,441.6z M276.9,441c0-0.3,0-0.5,0.1-0.7h0c0.1-0.2,0.2-0.4,0.3-0.6
			c0.1-0.2,0.3-0.3,0.5-0.4v0c0.2-0.1,0.3-0.1,0.5-0.1c0.1,0,0.2,0,0.3,0.1c0.1,0,0.2,0.1,0.3,0.2c0.1,0.1,0.1,0.2,0.2,0.3
			c0,0.1,0.1,0.2,0.1,0.4c0,0.2,0,0.3-0.1,0.5c0,0.2-0.1,0.3-0.2,0.4h0c-0.1,0.1-0.1,0.3-0.2,0.4c-0.1,0.1-0.2,0.2-0.3,0.3
			c-0.1,0.1-0.2,0.1-0.3,0.2c-0.1,0-0.2,0.1-0.3,0.1c-0.1,0-0.2,0-0.3-0.1c-0.1,0-0.2-0.1-0.2-0.2c-0.1-0.1-0.1-0.2-0.2-0.3v0
			C277,441.3,276.9,441.2,276.9,441L276.9,441z M277.5,441c0,0.1,0,0.2,0,0.3v0c0,0.1,0,0.1,0.1,0.2c0,0,0.1,0.1,0.1,0.1l0,0
			c0,0,0.1,0,0.2,0c0.1,0,0.2,0,0.2-0.1c0.1-0.1,0.1-0.1,0.2-0.2h0c0.1-0.1,0.1-0.3,0.2-0.5c0-0.2,0.1-0.4,0.1-0.5
			c0-0.1,0-0.2,0-0.3c0-0.1,0-0.1-0.1-0.2c0,0-0.1-0.1-0.1-0.1c0,0-0.1,0-0.2,0c-0.1,0-0.1,0-0.1,0c0,0-0.1,0-0.1,0.1l0,0
			c0,0-0.1,0.1-0.1,0.2v0c0,0.1-0.1,0.2-0.1,0.3c0,0.1-0.1,0.2-0.1,0.4v0C277.5,440.7,277.5,440.9,277.5,441L277.5,441z
			 M281.7,440.7l-0.3,0v0c-0.1,0-0.3,0-0.4,0c-0.1,0.2-0.1,0.4-0.1,0.6c0,0.2-0.1,0.4-0.1,0.5l0,0.1l-0.1,0c0,0-0.1,0-0.1,0
			c-0.1,0-0.1,0-0.2,0l-0.1,0l0,0l0,0l0,0l0-0.1c0-0.1,0.1-0.2,0.1-0.4c0-0.2,0.1-0.4,0.2-0.7v0c0.1-0.3,0.1-0.5,0.1-0.6
			c0-0.1,0-0.2,0-0.2l-0.1,0c-0.1,0-0.1,0.1-0.3,0.2l-0.1,0.1l-0.1-0.1l-0.1-0.1l0-0.1l0.1-0.1c0.2-0.2,0.4-0.3,0.5-0.3
			c0.2-0.1,0.3-0.1,0.4-0.1c0.1,0,0.1,0,0.2,0.1c0,0,0.1,0.1,0.1,0.2c0,0,0,0.1,0,0.1c0,0,0,0.1,0,0.1h0c0,0,0,0.1-0.1,0.3l-0.1,0.3
			l0.2,0l0.2,0v0c0,0,0.2,0,0.4,0c0.1-0.2,0.1-0.4,0.1-0.5c0-0.2,0.1-0.3,0.1-0.3l0-0.1l0.1,0c0.2,0,0.3-0.1,0.3-0.1l0.1,0l0,0l0,0
			l0,0l0,0.1c-0.1,0.2-0.1,0.4-0.2,0.5c0,0.2-0.1,0.4-0.1,0.6c0,0.2-0.1,0.4-0.1,0.5c0,0.1,0,0.2,0,0.3v0l0,0l0,0
			c0,0,0.1-0.1,0.1-0.1l0,0l0.1-0.1l0.1-0.1l0.1,0.1l0.1,0.1l0.1,0.1l-0.1,0.1c-0.2,0.2-0.4,0.3-0.5,0.4c-0.2,0.1-0.3,0.1-0.4,0.1
			c-0.1,0-0.1,0-0.2-0.1c0,0,0-0.1,0-0.2c0-0.1,0-0.2,0.1-0.4C281.6,441.1,281.7,440.9,281.7,440.7L281.7,440.7z M285.3,439.4
			c0-0.1,0-0.2-0.1-0.3c0-0.2-0.1-0.3-0.2-0.4c-0.1-0.1-0.2-0.2-0.3-0.3c-0.1-0.1-0.3-0.1-0.5-0.2l-0.1,0l0-0.1l0-0.1l0-0.1l0.1,0
			c0.5,0,0.9,0.2,1.2,0.5c0.3,0.3,0.4,0.8,0.4,1.3c0,0.2,0,0.4,0,0.6c0,0.2-0.1,0.4-0.1,0.5v0c-0.1,0.2-0.1,0.3-0.2,0.5
			c-0.1,0.1-0.2,0.2-0.3,0.3l0,0c-0.1,0.1-0.2,0.1-0.4,0.2c-0.1,0-0.2,0.1-0.4,0.1c-0.1,0-0.2,0-0.3-0.1h0c-0.1,0-0.2-0.1-0.2-0.2
			l0,0c-0.1-0.1-0.1-0.2-0.2-0.3c0-0.1-0.1-0.3-0.1-0.4c0-0.2,0-0.5,0.1-0.7c0.1-0.2,0.2-0.4,0.3-0.6c0.1-0.2,0.3-0.3,0.4-0.4
			c0.1-0.1,0.3-0.1,0.5-0.1C285,439.3,285.1,439.3,285.3,439.4C285.2,439.3,285.2,439.4,285.3,439.4L285.3,439.4z M284.6,441.5
			c0.1,0,0.2,0,0.3-0.1c0.1-0.1,0.1-0.2,0.2-0.3c0.1-0.1,0.1-0.3,0.1-0.5c0-0.2,0-0.3,0-0.5c0-0.2,0-0.4-0.1-0.5l0,0
			c-0.1-0.1-0.1-0.1-0.3-0.1c-0.1,0-0.2,0-0.2,0.1c-0.1,0.1-0.1,0.2-0.2,0.3c-0.1,0.2-0.1,0.3-0.1,0.5c0,0.2,0,0.3,0,0.5
			c0,0.2,0,0.3,0.1,0.4C284.4,441.5,284.5,441.5,284.6,441.5L284.6,441.5z M286.9,440L286.9,440l-0.1-0.2l0.1-0.1
			c0.2-0.2,0.4-0.3,0.5-0.3c0.2-0.1,0.3-0.1,0.4-0.1c0,0,0.1,0,0.1,0l0,0c0,0,0,0,0.1,0l0,0l0,0c0,0,0,0,0,0.1h0c0,0,0,0.1,0,0.1
			c0,0,0,0.1,0,0.2c0,0.1-0.1,0.3-0.1,0.5c-0.1,0.3-0.1,0.6-0.2,0.7c0,0.2-0.1,0.3-0.1,0.4v0c0,0,0,0,0.1,0l0,0c0,0,0.1-0.1,0.2-0.1
			v0c0.1-0.1,0.3-0.2,0.4-0.4c0.1-0.1,0.2-0.2,0.3-0.4v0c0.1-0.1,0.1-0.3,0.2-0.5h0c0.1-0.2,0.1-0.4,0.1-0.6l0-0.1l0.1,0
			c0.1,0,0.1,0,0.2,0h0c0.1,0,0.1,0,0.1,0l0.1,0l0,0l0,0l0,0l0,0.1c-0.1,0.2-0.1,0.5-0.2,0.7c-0.1,0.2-0.1,0.5-0.2,0.7
			c0,0.1,0,0.2-0.1,0.3c0,0.1,0,0.2,0,0.2v0l0,0v0c0,0,0.1-0.1,0.2-0.1l0,0l0.1-0.1l0.1-0.1l0.1,0.1l0.1,0.1l0.1,0.1l-0.1,0.1
			c-0.2,0.2-0.4,0.3-0.5,0.4c-0.2,0.1-0.3,0.1-0.4,0.1c0,0-0.1,0-0.1,0c0,0-0.1,0-0.1-0.1c0,0,0-0.1,0-0.1v0c0,0,0-0.1,0-0.1
			c0,0,0-0.1,0-0.1c0-0.1,0-0.1,0-0.2l0,0l0-0.2l-0.1,0.1c-0.1,0.2-0.3,0.3-0.4,0.4c-0.1,0.1-0.2,0.2-0.3,0.2l0,0
			c-0.1,0-0.2,0.1-0.2,0.1c0,0-0.1,0-0.1,0l0,0c0,0-0.1,0-0.1-0.1c0,0-0.1-0.1-0.1-0.1l0,0c0,0,0-0.1,0-0.1c0-0.1,0-0.3,0.1-0.6v0
			c0.1-0.3,0.1-0.6,0.2-0.8c0-0.2,0.1-0.3,0.1-0.3l-0.1,0c-0.1,0-0.1,0.1-0.3,0.2l-0.1,0.1L286.9,440L286.9,440z M290.5,440l0-0.1
			l0-0.1l0.1,0c0.1-0.1,0.2-0.2,0.3-0.2c0.1-0.1,0.2-0.1,0.3-0.2c0,0,0.1,0,0.1-0.1c0,0,0.1,0,0.1,0c0,0,0.1,0,0.1,0v0
			c0,0,0.1,0,0.1,0.1h0c0,0,0,0,0,0.1c0,0,0,0.1,0,0.1c0,0,0,0.1,0,0.1l0,0l0,0.2v0l0,0.2l0.1-0.1l0,0c0.1-0.1,0.3-0.2,0.4-0.3l0,0
			c0.3-0.2,0.5-0.3,0.6-0.3c0,0,0.1,0,0.1,0v0c0,0,0.1,0,0.1,0.1l0,0c0,0,0,0.1,0.1,0.1l0,0c0,0,0,0.1,0,0.1c0,0,0,0.1,0,0.3l0,0.2
			c0.1-0.1,0.2-0.2,0.2-0.2c0.1-0.1,0.2-0.1,0.3-0.2c0.1-0.1,0.2-0.1,0.3-0.2c0.1,0,0.1-0.1,0.2-0.1c0.1,0,0.1,0,0.2,0
			c0,0,0.1,0,0.1,0l0,0c0,0,0.1,0,0.1,0.1l0,0c0,0,0,0,0,0.1h0c0,0,0,0.1,0,0.1c0,0.1,0,0.2-0.1,0.4v0c0,0.2-0.1,0.5-0.2,0.9v0
			c0,0.2-0.1,0.3-0.1,0.4c0,0.1,0,0.1,0,0.2l0,0l0,0c0,0,0.1,0,0.1-0.1v0c0.1,0,0.1-0.1,0.2-0.1l0.1-0.1l0.1,0.1l0,0.1l0,0.1
			l-0.1,0.1c-0.1,0.1-0.3,0.2-0.4,0.3c-0.1,0.1-0.2,0.1-0.2,0.1l0,0c0,0-0.1,0-0.1,0c0,0-0.1,0-0.1,0c0,0-0.1,0-0.1,0
			c0,0-0.1,0-0.1-0.1l0,0c0,0,0-0.1-0.1-0.1c0,0,0-0.1,0-0.1c0,0,0-0.1,0-0.3c0-0.1,0.1-0.3,0.1-0.5v0c0.1-0.3,0.1-0.5,0.2-0.7
			c0-0.2,0.1-0.3,0.1-0.4c0,0-0.1,0-0.1,0c-0.1,0-0.1,0.1-0.2,0.1c-0.1,0.1-0.2,0.2-0.3,0.3l0,0c-0.1,0.1-0.2,0.2-0.2,0.3
			c-0.1,0.1-0.1,0.3-0.2,0.4c0,0.2-0.1,0.4-0.1,0.7l0,0.1l-0.1,0c-0.1,0-0.1,0-0.2,0v0c-0.1,0-0.1,0-0.2,0l0,0l0,0l0,0l-0.1,0l0-0.1
			c0.1-0.3,0.2-0.6,0.2-0.8v0c0.1-0.2,0.1-0.4,0.1-0.5v0c0-0.1,0-0.3,0.1-0.3c0-0.1,0-0.2,0-0.2v0c0,0,0,0-0.1,0
			c0,0-0.1,0.1-0.2,0.1c-0.1,0.1-0.2,0.2-0.3,0.3c-0.1,0.1-0.2,0.2-0.2,0.3c-0.1,0.1-0.1,0.3-0.2,0.5c-0.1,0.2-0.1,0.4-0.2,0.7
			l0,0.1l-0.1,0c-0.1,0-0.1,0-0.2,0v0c-0.1,0-0.1,0-0.2,0l-0.1,0l0-0.1l0,0l0,0l0-0.1c0.1-0.2,0.1-0.5,0.2-0.7
			c0.1-0.2,0.1-0.4,0.1-0.6v0c0-0.2,0-0.3,0.1-0.4v0c0-0.1,0-0.2,0-0.2l0,0c0,0,0,0-0.1,0c-0.1,0-0.1,0.1-0.2,0.1l-0.1,0.1
			L290.5,440L290.5,440z M297.1,441.2l0,0.1l0,0.1l-0.1,0c-0.1,0.1-0.2,0.2-0.3,0.3c-0.1,0.1-0.2,0.1-0.3,0.2
			c-0.1,0-0.2,0.1-0.2,0.1c-0.1,0-0.2,0-0.2,0c-0.2,0-0.4-0.1-0.5-0.2l0,0c-0.1-0.1-0.1-0.1-0.1-0.2c0-0.1,0-0.2,0-0.3
			c0-0.1,0-0.2,0-0.4c0-0.1,0.1-0.3,0.1-0.4v0c0-0.1,0.1-0.3,0.2-0.4c0.1-0.1,0.1-0.2,0.2-0.3c0.1-0.1,0.1-0.1,0.2-0.2
			c0.1-0.1,0.2-0.1,0.3-0.2c0.1,0,0.1-0.1,0.2-0.1l0,0c0.1,0,0.1,0,0.2,0c0.1,0,0.2,0,0.2,0h0c0.1,0,0.1,0.1,0.2,0.1l0,0
			c0,0,0.1,0.1,0.1,0.2c0,0.1,0,0.1,0,0.2c0,0.3-0.1,0.5-0.4,0.7c-0.2,0.2-0.6,0.3-1,0.4c0,0.1,0,0.1,0,0.2c0,0.1,0,0.1,0,0.2
			c0,0.1,0,0.1,0,0.1c0,0,0,0.1,0.1,0.1l0,0c0,0,0.1,0.1,0.1,0.1c0,0,0.1,0,0.1,0c0,0,0.1,0,0.1,0l0,0c0,0,0.1,0,0.1,0
			c0.1,0,0.1-0.1,0.2-0.1l0,0c0.1,0,0.2-0.1,0.3-0.2l0.1-0.1L297.1,441.2L297.1,441.2z M296,440.4c0.1,0,0.2-0.1,0.3-0.1
			c0.1,0,0.2-0.1,0.3-0.2c0.1-0.1,0.1-0.1,0.2-0.2c0-0.1,0-0.1,0-0.2c0-0.1,0-0.1,0-0.1h0c0,0,0,0,0,0c0,0,0,0-0.1,0
			c-0.1,0-0.2,0-0.2,0.1c0,0-0.1,0.1-0.1,0.1c0,0-0.1,0.1-0.1,0.1v0c0,0.1-0.1,0.2-0.1,0.3C296,440.3,296,440.4,296,440.4L296,440.4
			z M298.1,440l-0.1-0.1l-0.1-0.1l0.1-0.1c0.2-0.1,0.3-0.2,0.4-0.3l0,0c0.1-0.1,0.2-0.1,0.3-0.1l0,0c0,0,0.1,0,0.1-0.1l0,0
			c0,0,0.1,0,0.1,0c0,0,0.1,0,0.1,0v0c0,0,0.1,0,0.1,0.1l0,0c0,0,0,0.1,0,0.1c0,0,0,0.1,0,0.1c0,0,0,0.1,0,0.3v0l0,0.1
			c0,0,0.1-0.1,0.1-0.1h0c0.1-0.1,0.1-0.1,0.2-0.2c0.1-0.1,0.2-0.1,0.3-0.1c0.1,0,0.2-0.1,0.2-0.1c0.1,0,0.1,0,0.2,0
			c0.1,0,0.1,0,0.2,0l0,0c0,0,0.1,0.1,0.1,0.1l0,0c0,0.1,0.1,0.1,0.1,0.2c0,0.1,0,0.2,0,0.3c0,0.3-0.1,0.6-0.2,0.9
			c-0.1,0.1-0.1,0.3-0.2,0.4c-0.1,0.1-0.1,0.2-0.2,0.3c-0.1,0.1-0.1,0.1-0.2,0.2c-0.1,0.1-0.2,0.1-0.3,0.2h0
			c-0.1,0.1-0.2,0.1-0.3,0.1c-0.1,0-0.2,0-0.3,0c0,0-0.1,0-0.2,0h0c0,0,0,0-0.1,0c0,0.2-0.1,0.4-0.1,0.6v0c0,0.2-0.1,0.4-0.1,0.6
			l0,0.1l-0.1,0c-0.1,0-0.1,0-0.2,0c-0.1,0-0.1,0-0.2,0l-0.1,0l0,0l0,0l-0.1,0l0-0.1c0.1-0.4,0.2-0.8,0.3-1.2
			c0.1-0.4,0.2-0.9,0.3-1.4c0-0.2,0.1-0.4,0.1-0.5c0-0.1,0-0.2,0-0.2c-0.1,0-0.2,0.1-0.3,0.2l-0.1,0.1L298.1,440L298.1,440z
			 M298.9,441.4c0,0,0.1,0,0.1,0.1h0c0.1,0,0.1,0,0.2,0c0.1,0,0.2,0,0.3-0.1c0,0,0.1-0.1,0.2-0.2c0.1-0.1,0.1-0.2,0.2-0.4
			c0.1-0.2,0.1-0.3,0.1-0.4c0-0.1,0-0.3,0-0.4c0,0,0-0.1,0-0.1c0,0,0,0,0,0c0,0,0,0,0,0c0,0,0,0,0,0c-0.1,0-0.1,0-0.2,0h0
			c-0.1,0-0.2,0.1-0.2,0.2l0,0c-0.1,0.1-0.2,0.2-0.2,0.3v0c-0.1,0.1-0.1,0.2-0.2,0.3v0c0,0.1-0.1,0.2-0.1,0.3c0,0.1-0.1,0.3-0.1,0.5
			L298.9,441.4L298.9,441.4z M303.5,440.2h-0.1h-0.1l0-0.1l0-0.2l0-0.1h0c0,0,0,0,0,0l0,0c0,0,0,0,0,0l0,0c0,0-0.1,0-0.1,0
			c0,0-0.1,0-0.2,0c-0.1,0-0.1,0-0.2,0c-0.1,0-0.1,0-0.1,0.1c0,0-0.1,0.1-0.1,0.1l0,0c0,0.1-0.1,0.2-0.1,0.3h0
			c0,0.1-0.1,0.2-0.1,0.4c0,0.1,0,0.3,0,0.4c0,0.1,0,0.1,0,0.2c0,0,0,0.1,0.1,0.1l0,0c0,0,0.1,0.1,0.1,0.1c0,0,0.1,0,0.1,0
			c0,0,0.1,0,0.1,0c0.1,0,0.1,0,0.2-0.1v0c0.1,0,0.1-0.1,0.2-0.1c0.1,0,0.2-0.1,0.3-0.2l0.1-0.1l0.1,0.1l0,0.1l0,0.1l-0.1,0
			c-0.1,0.1-0.2,0.2-0.3,0.3v0c-0.1,0.1-0.2,0.1-0.3,0.2l0,0c-0.1,0-0.2,0.1-0.2,0.1h0c-0.1,0-0.2,0-0.2,0c-0.1,0-0.2,0-0.3-0.1v0
			c-0.1,0-0.2-0.1-0.2-0.2l0,0c-0.1-0.1-0.1-0.2-0.1-0.3v0c0-0.1,0-0.2,0-0.3c0-0.1,0-0.3,0-0.4v0c0-0.1,0.1-0.3,0.1-0.4v0
			c0-0.1,0.1-0.2,0.1-0.3h0c0.1-0.1,0.1-0.2,0.2-0.3l0,0c0.1-0.1,0.2-0.1,0.3-0.2v0c0.1-0.1,0.2-0.1,0.4-0.2c0.1,0,0.1-0.1,0.2-0.1
			h0c0.1,0,0.1,0,0.2,0c0,0,0.1,0,0.1,0c0,0,0.1,0,0.1,0v0c0,0,0.1,0,0.1,0l0,0c0,0,0.1,0,0.1,0.1l0.1,0l0,0.1c0,0.1,0,0.2-0.1,0.3
			h0c0,0.1,0,0.2,0,0.3L303.5,440.2L303.5,440.2L303.5,440.2z M306.9,441.6c-0.2,0.1-0.3,0.2-0.4,0.3c-0.1,0.1-0.2,0.1-0.3,0.1
			c0,0-0.1,0-0.1,0c0,0-0.1,0-0.1-0.1c0,0-0.1-0.1-0.1-0.1c0-0.1-0.1-0.1-0.1-0.2h0c0-0.1-0.1-0.2-0.1-0.4c0-0.1-0.1-0.2-0.1-0.4
			c0,0-0.1,0.1-0.1,0.1l0,0c0,0.1-0.1,0.1-0.1,0.2c0,0,0,0.1-0.1,0.3c0,0.1-0.1,0.3-0.1,0.5l0,0.1l-0.1,0c-0.1,0-0.2,0.1-0.3,0.1
			l-0.1,0l-0.1-0.1l0,0l0,0l0-0.1c0-0.2,0.1-0.3,0.1-0.5c0-0.2,0.1-0.4,0.1-0.6c0-0.2,0.1-0.4,0.1-0.5c0-0.1,0-0.2,0-0.3
			c0,0,0,0-0.1,0c-0.1,0-0.1,0.1-0.2,0.2l-0.1,0.1l0-0.1l0-0.1l0-0.1l0.1,0c0.2-0.2,0.4-0.3,0.5-0.4c0.2-0.1,0.3-0.1,0.3-0.1
			c0.1,0,0.1,0,0.2,0.1c0,0,0.1,0.1,0.1,0.2c0,0,0,0.2-0.1,0.4c0,0.1,0,0.2-0.1,0.4l0.1-0.2c0.1-0.1,0.2-0.3,0.3-0.4
			c0.1-0.1,0.2-0.2,0.3-0.2c0.1-0.1,0.2-0.1,0.2-0.1l0,0c0.1,0,0.1,0,0.2-0.1h0c0.1,0,0.1,0,0.1,0c0,0,0,0,0.1,0l0,0l0.1,0l0.1,0
			l0,0.1c0,0.1,0,0.1,0,0.2c0,0.1,0,0.1,0,0.2l0,0.1l-0.1,0c0,0-0.1,0-0.1,0h0c0,0,0,0,0,0c-0.1,0-0.2,0-0.3,0.1
			c-0.1,0.1-0.3,0.2-0.4,0.3c0.1,0.3,0.2,0.6,0.3,0.7h0c0.1,0.2,0.1,0.3,0.1,0.3c0,0,0,0,0,0.1h0c0,0,0,0,0,0c0,0,0.1,0,0.3-0.1
			l0.1-0.1l0.1,0.1l0,0.1L306.9,441.6L306.9,441.6L306.9,441.6z M308,440L308,440l-0.1-0.2l0.1-0.1c0.2-0.2,0.4-0.3,0.5-0.3
			c0.2-0.1,0.3-0.1,0.4-0.1c0,0,0.1,0,0.1,0l0,0v0c0,0,0,0,0.1,0l0,0l0,0c0,0,0,0,0,0.1h0c0,0,0,0.1,0,0.1c0,0,0,0.1,0,0.2
			c0,0.1-0.1,0.3-0.1,0.5c-0.1,0.3-0.1,0.6-0.2,0.7c0,0.2-0.1,0.3-0.1,0.4v0c0,0,0,0,0.1,0l0,0c0,0,0.1-0.1,0.2-0.1v0
			c0.1-0.1,0.3-0.2,0.4-0.4c0.1-0.1,0.2-0.2,0.3-0.4v0c0.1-0.1,0.1-0.3,0.2-0.5h0c0.1-0.2,0.1-0.4,0.1-0.6l0-0.1l0.1,0
			c0.1,0,0.1,0,0.2,0h0c0.1,0,0.1,0,0.1,0l0.1,0l0,0l0,0l0,0l0,0.1c-0.1,0.2-0.1,0.5-0.2,0.7c-0.1,0.2-0.1,0.5-0.2,0.7
			c0,0.1,0,0.2-0.1,0.3c0,0.1,0,0.2,0,0.2v0l0,0v0c0,0,0.1-0.1,0.2-0.1l0,0l0.1-0.1l0.1-0.1l0.1,0.1l0.1,0.1l0.1,0.1l-0.1,0.1
			c-0.2,0.2-0.4,0.3-0.5,0.4c-0.2,0.1-0.3,0.1-0.4,0.1c0,0-0.1,0-0.1,0c0,0-0.1,0-0.1-0.1c0,0,0-0.1,0-0.1v0c0,0,0-0.1,0-0.1
			c0,0,0-0.1,0-0.1c0-0.1,0-0.1,0-0.2l0,0l0-0.2l-0.1,0.1c-0.1,0.2-0.3,0.3-0.4,0.4c-0.1,0.1-0.2,0.2-0.3,0.2v0
			c-0.1,0-0.2,0.1-0.2,0.1c0,0-0.1,0-0.1,0l0,0c0,0-0.1,0-0.1-0.1c0,0-0.1-0.1-0.1-0.1l0,0c0,0,0-0.1,0-0.1c0-0.1,0-0.3,0.1-0.6v0
			c0.1-0.3,0.1-0.6,0.2-0.8c0-0.2,0.1-0.3,0.1-0.3l-0.1,0c-0.1,0-0.1,0.1-0.3,0.2l-0.1,0.1L308,440L308,440z M311.7,440L311.7,440
			l-0.1-0.2l0.1-0.1c0.2-0.2,0.4-0.3,0.5-0.3c0.2-0.1,0.3-0.1,0.4-0.1c0,0,0.1,0,0.1,0l0,0v0c0,0,0,0,0.1,0l0,0l0,0c0,0,0,0,0,0.1h0
			c0,0,0,0.1,0,0.1c0,0,0,0.1,0,0.2c0,0.1-0.1,0.3-0.1,0.5c-0.1,0.3-0.1,0.6-0.2,0.7c0,0.2-0.1,0.3-0.1,0.4v0c0,0,0,0,0.1,0l0,0
			c0,0,0.1-0.1,0.2-0.1v0c0.1-0.1,0.3-0.2,0.4-0.4c0.1-0.1,0.2-0.2,0.3-0.4v0c0.1-0.1,0.1-0.3,0.2-0.5h0c0.1-0.2,0.1-0.4,0.1-0.6
			l0-0.1l0.1,0c0.1,0,0.1,0,0.2,0h0c0.1,0,0.1,0,0.1,0l0.1,0l0,0l0,0l0,0l0,0.1c-0.1,0.2-0.1,0.5-0.2,0.7c-0.1,0.2-0.1,0.5-0.2,0.7
			c0,0.1,0,0.2-0.1,0.3c0,0.1,0,0.2,0,0.2v0l0,0v0c0,0,0.1-0.1,0.2-0.1l0,0l0.1-0.1l0.1-0.1l0.1,0.1l0.1,0.1l0.1,0.1l-0.1,0.1
			c-0.2,0.2-0.4,0.3-0.5,0.4c-0.2,0.1-0.3,0.1-0.4,0.1c0,0-0.1,0-0.1,0c0,0-0.1,0-0.1-0.1c0,0,0-0.1,0-0.1v0c0,0,0-0.1,0-0.1
			c0,0,0-0.1,0-0.1c0-0.1,0-0.1,0-0.2l0,0l0-0.2l-0.1,0.1c-0.1,0.2-0.3,0.3-0.4,0.4c-0.1,0.1-0.2,0.2-0.3,0.2v0
			c-0.1,0-0.2,0.1-0.2,0.1c0,0-0.1,0-0.1,0l0,0c0,0-0.1,0-0.1-0.1c0,0-0.1-0.1-0.1-0.1l0,0c0,0,0-0.1,0-0.1c0-0.1,0-0.3,0.1-0.6v0
			c0.1-0.3,0.1-0.6,0.2-0.8c0-0.2,0.1-0.3,0.1-0.3l-0.1,0c-0.1,0-0.1,0.1-0.3,0.2l-0.1,0.1L311.7,440L311.7,440z M313,438.5
			c0.1,0.1,0.3,0.1,0.4,0.2c0.1,0,0.2,0.1,0.4,0.1l0,0l0,0l0.1,0l0,0.1l0,0l0,0.1l-0.1,0l-0.1,0l-0.1,0l0,0l0,0c-0.1,0-0.1,0-0.2,0
			c-0.1,0-0.1,0-0.2,0c-0.1,0-0.2,0-0.3,0h0c-0.1,0-0.2,0-0.4-0.1l-0.1,0l0-0.1l0-0.1l0-0.1l0.1,0c0.1,0,0.1-0.1,0.2-0.1
			c0,0,0.1-0.1,0.1-0.1L313,438.5L313,438.5L313,438.5z M319.4,439.4c0-0.1,0-0.2-0.1-0.3c0-0.2-0.1-0.3-0.2-0.4
			c-0.1-0.1-0.2-0.2-0.3-0.3c-0.1-0.1-0.3-0.1-0.5-0.2l-0.1,0l0-0.1l0-0.1l0-0.1l0.1,0c0.5,0,0.9,0.2,1.2,0.5
			c0.3,0.3,0.4,0.8,0.4,1.3c0,0.2,0,0.4,0,0.6c0,0.2-0.1,0.4-0.1,0.5v0c-0.1,0.2-0.1,0.3-0.2,0.5c-0.1,0.1-0.2,0.2-0.3,0.3l0,0
			c-0.1,0.1-0.2,0.1-0.4,0.2c-0.1,0-0.2,0.1-0.4,0.1c-0.1,0-0.2,0-0.3-0.1h0c-0.1,0-0.2-0.1-0.2-0.2l0,0c-0.1-0.1-0.1-0.2-0.2-0.3
			c0-0.1-0.1-0.3-0.1-0.4c0-0.2,0-0.5,0.1-0.7h0c0.1-0.2,0.2-0.4,0.3-0.6c0.1-0.2,0.3-0.3,0.4-0.4c0.1-0.1,0.3-0.1,0.5-0.1
			C319.1,439.3,319.2,439.3,319.4,439.4C319.4,439.3,319.4,439.4,319.4,439.4L319.4,439.4z M318.7,441.5c0.1,0,0.2,0,0.3-0.1
			c0.1-0.1,0.1-0.2,0.2-0.3c0.1-0.1,0.1-0.3,0.1-0.5c0-0.2,0-0.3,0-0.5c0-0.2,0-0.4-0.1-0.5l0,0c-0.1-0.1-0.1-0.1-0.3-0.1
			c-0.1,0-0.2,0-0.2,0.1c-0.1,0.1-0.1,0.2-0.2,0.3c-0.1,0.2-0.1,0.3-0.1,0.5c0,0.2,0,0.3,0,0.5c0,0.2,0,0.3,0.1,0.4
			C318.5,441.5,318.6,441.5,318.7,441.5L318.7,441.5z M320.9,441c0-0.3,0-0.5,0.1-0.7h0c0.1-0.2,0.2-0.4,0.3-0.6
			c0.1-0.2,0.3-0.3,0.5-0.4v0c0.2-0.1,0.3-0.1,0.5-0.1c0.1,0,0.2,0,0.3,0.1c0.1,0,0.2,0.1,0.3,0.2c0.1,0.1,0.1,0.2,0.2,0.3
			c0,0.1,0.1,0.2,0.1,0.4c0,0.2,0,0.3-0.1,0.5c0,0.2-0.1,0.3-0.2,0.4h0c-0.1,0.1-0.1,0.3-0.2,0.4c-0.1,0.1-0.2,0.2-0.3,0.3
			c-0.1,0.1-0.2,0.1-0.3,0.2c-0.1,0-0.2,0.1-0.3,0.1c-0.1,0-0.2,0-0.3-0.1c-0.1,0-0.2-0.1-0.2-0.2c-0.1-0.1-0.1-0.2-0.2-0.3v0
			C321,441.3,320.9,441.2,320.9,441L320.9,441z M321.5,441c0,0.1,0,0.2,0,0.3c0,0.1,0,0.1,0.1,0.2c0,0,0.1,0.1,0.1,0.1l0,0
			c0,0,0.1,0,0.2,0c0.1,0,0.2,0,0.2-0.1c0.1-0.1,0.1-0.1,0.2-0.2h0c0.1-0.1,0.1-0.3,0.2-0.5v0c0-0.2,0.1-0.4,0.1-0.5
			c0-0.1,0-0.2,0-0.3c0-0.1,0-0.1-0.1-0.2c0,0-0.1-0.1-0.1-0.1c0,0-0.1,0-0.2,0c-0.1,0-0.1,0-0.1,0c0,0-0.1,0-0.1,0.1l0,0
			c0,0-0.1,0.1-0.1,0.2c0,0.1-0.1,0.2-0.1,0.3c0,0.1-0.1,0.2-0.1,0.4C321.6,440.7,321.5,440.9,321.5,441L321.5,441z M327.4,441.4
			c-0.2,0.2-0.4,0.3-0.5,0.4c-0.2,0.1-0.3,0.1-0.4,0.1c-0.2,0-0.2-0.1-0.2-0.3c0-0.1,0-0.1,0-0.2c0-0.1,0-0.2,0.1-0.4v0l0.1-0.5
			l-0.2,0.4v0c-0.2,0.3-0.3,0.5-0.4,0.7c-0.1,0.2-0.2,0.3-0.2,0.4l0,0.1h-0.1h-0.2h-0.1l0-0.1l-0.3-1.4c-0.1,0.2-0.1,0.4-0.2,0.6
			c-0.1,0.3-0.2,0.5-0.2,0.6l0,0c-0.1,0.1-0.2,0.2-0.2,0.3c-0.1,0.1-0.2,0.1-0.3,0.1c0,0-0.1,0-0.1,0v0c0,0-0.1,0-0.1,0l-0.1,0
			l0-0.1l0-0.1l0-0.1l0,0l0-0.2l0-0.1l0,0l0.1,0l0.1-0.1l0.1,0.1c0,0,0,0.1,0.1,0.1v0c0,0,0,0,0,0c0,0,0.1,0,0.1,0l0,0
			c0,0,0.1-0.1,0.1-0.2c0-0.1,0.1-0.2,0.2-0.5c0.1-0.2,0.1-0.5,0.2-0.9l0,0c0,0,0,0,0,0l0,0c0,0,0,0-0.1,0h0c0,0-0.1,0-0.2,0l-0.1,0
			l0-0.1l0-0.1l0-0.1l0.1,0c0.1,0,0.2,0,0.3,0c0.1,0,0.2,0,0.2,0c0,0,0,0,0.1,0c0,0,0,0,0.1,0l0.1,0l0,0.1l0.3,1.7
			c0.3-0.5,0.5-0.9,0.7-1.1c0.2-0.3,0.3-0.5,0.3-0.5l0-0.1l0.1,0c0.1,0,0.1,0,0.2,0v0c0.1,0,0.1,0,0.1,0l0.1,0l0,0l0,0l0,0l0,0.1
			c0,0.2-0.1,0.3-0.1,0.5c0,0.2-0.1,0.4-0.1,0.6c0,0.2-0.1,0.4-0.1,0.5c0,0.1,0,0.2,0,0.3v0l0,0h0c0,0,0.1-0.1,0.1-0.1l0,0l0.1-0.1
			l0.1-0.1l0.1,0.1l0.1,0.1L327.4,441.4L327.4,441.4z"/>
		<path class="st0" d="M279.7,412c0.4,1.2,1.9,1.3,2.9,0.9c0.7-0.3,1.3-0.8,2-1.1c0.4-0.2,0.9-0.3,1.4-0.1c0.2,0.1,0.4,0.2,0.5,0.3
			c0.1,0.1,0.2,0.3,0.2,0.5c0,0.1-0.1,0.2-0.1,0.3c0,0,0,0,0-0.1c0,0,0.1-0.1,0-0.2c-0.5-0.8-1.5,0.5-0.5,0.8c0.5,0.2,0.9-0.2,1-0.7
			c0.1-0.6-0.3-1.1-0.8-1.3c-1.1-1.5-3-0.9-4.5-0.4c-0.1-0.3-0.3-0.5-0.6-0.6c-0.8-0.3-1.5,0.4-1.5,1.2c-0.8,0.1-1.9,0.1-2.3-0.8
			c-0.2-0.5,0-1.2,0.5-1.5c0.3-0.2,0.6-0.2,0.9-0.1c0.1,0,0.3,0.1,0.4,0.2c0.3,0.2,0.6,0.5,0.2,0.8c-0.2,0.1-0.1,0.5,0.2,0.4
			c0.6-0.2,0.5-0.8,0.2-1.2c-0.4-0.4-0.9-0.6-1.5-0.5c-1.1,0.1-1.7,1.5-1.1,2.4C277.7,412,278.7,412.1,279.7,412L279.7,412z
			 M280,411.6C280,411.5,280,411.5,280,411.6c0-0.5,0.5-1,1-0.8c0.2,0.1,0.4,0.2,0.4,0.4c-0.2,0.1-0.4,0.1-0.6,0.2
			C280.5,411.4,280.3,411.5,280,411.6L280,411.6z M285.6,411.2c-1.2-0.1-2.3,1.1-3.4,1.4c-0.7,0.2-1.8,0-2.1-0.7
			c0.3-0.1,0.7-0.2,1-0.3c0.1,0,0.2-0.1,0.3-0.1c-0.1,0.3-0.3,0.5-0.6,0.5c-0.2,0-0.2,0.4,0,0.3c0.5-0.1,0.9-0.5,1-1
			C283,411,284.4,410.5,285.6,411.2z"/>
		<path class="st0" d="M257.1,436.1c0,0-0.1-0.1-0.1-0.1c0-0.6,0.8-0.6,1-0.1c0.2,0.7-0.7,1-1.2,0.6c-0.5-0.4-0.5-1.2,0-1.5
			c0.3-0.2,0.7-0.3,1.1-0.2c0,0,0,0,0,0l85,0l0,0c0.4,0,0.7,0,1,0.2c0.5,0.4,0.5,1.2,0,1.5c-0.5,0.3-1.4,0.1-1.2-0.6
			c0.2-0.5,1-0.5,1,0.1c0,0.1,0,0.1-0.1,0.1c0,0,0,0,0,0c0.1,0,0.2-0.4,0.2-0.5c0-0.2-0.2-0.3-0.3-0.4c-0.2-0.1-0.4-0.1-0.7-0.1h-85
			l0,0c-0.2,0-0.5,0-0.7,0.1c-0.1,0.1-0.3,0.2-0.3,0.4C256.9,435.7,257,436.1,257.1,436.1C257.1,436.1,257.1,436.1,257.1,436.1z"/>
	</g>
</g>
</svg>
